<svg viewBox="0 0 283 64" fill="none" xmlns="http://www.w3.org/2000/svg"><path d="M141.04 16h.16v32h-.16V16Zm-15.84 0 15.04 25.6V16h.16v40h-.16V40L125.2 16h-1.12l-7.2 12.32L110.72 16h-1.28v40h-.16V16Zm-27.68 0 15.04 25.6V16h.16v40h-.16V40L97.52 16h-1.12l-7.2 12.32L83.04 16h-1.28v40h-.16V16ZM42.72 48V16h.16v40h-.16V48Zm-15.84-32 15.04 25.6V16h.16v40h-.16V40L26.88 16h-1.12l-7.2 12.32L12.4 16h-1.28v40h-.16V16ZM282.8 16l-24 40H238l24-40h1.12Zm-1.28 12.32-7.2 12.32 7.2 12.32-7.2 12.32-15.04-25.6V56h-.16V16h.16v25.6L281.52 16h1.28Zm-40.16 0 15.04 25.6V16h.16v40h-.16V40l-15.04-25.6h-1.12l-7.2 12.32L223.2 16h-1.28v40h-.16V16Zm-27.68 0 15.04 25.6V16h.16v40h-.16V40l-15.04-25.6h-1.12l-7.2 12.32L209.76 16h-1.28v40h-.16V16ZM169.2 40V16h.16v40h-.16V40Zm-15.84-24 15.04 25.6V16h.16v40h-.16V40l-15.04-25.6h-1.12l-7.2 12.32L154.72 16h-1.28v40h-.16V16ZM56 56V16h.16v40H56Zm78.4 0V16h.16v40h-.16V56Z" fill="#000"/></svg>