<svg viewBox="0 0 128 128" fill="none" xmlns="http://www.w3.org/2000/svg"><path fill-rule="evenodd" clip-rule="evenodd" d="M64 128C28.6548 128 0 99.3452 0 64C0 28.6548 28.6548 0 64 0C99.3452 0 128 28.6548 128 64C128 99.3452 99.3452 128 64 128ZM42.324 91.3121C40.4588 93.1773 37.397 93.1773 35.5318 91.3121C33.6665 89.4468 33.6665 86.385 35.5318 84.5198L55.8558 64.1958L35.5318 43.8718C33.6665 42.0065 33.6665 38.9447 35.5318 37.0795C37.397 35.2142 40.4588 35.2142 42.324 37.0795L62.648 57.4035L82.972 37.0795C84.8373 35.2142 87.899 35.2142 89.7642 37.0795C91.6295 38.9447 91.6295 42.0065 89.7642 43.8718L69.4402 64.1958L89.7642 84.5198C91.6295 86.385 91.6295 89.4468 89.7642 91.3121C87.899 93.1773 84.8373 93.1773 82.972 91.3121L62.648 70.9881L42.324 91.3121Z" fill="#000"/></svg>